<?xml version="1.0" encoding="UTF-8"?> <svg xmlns="http://www.w3.org/2000/svg" width="512" height="512" viewBox="0 0 512 512" fill="none"> <g clip-path="url(#clip0)"> <path d="M511.995 197.993C511.995 196.303 511.572 194.613 510.716 193.09L456.716 97.0901C454.945 93.9421 451.613 91.9931 448 91.9931H389.988C388.877 90.3111 387.59 88.7281 386.132 87.2691L307.642 8.77908C295.945 -2.91692 276.913 -2.91692 265.215 8.77908L181.827 92.1671C181.234 92.0571 180.625 91.9931 180 91.9931H64C60.387 91.9931 57.056 93.9421 55.284 97.0901L1.284 193.09C0.427 194.613 0.005 196.303 0.005 197.993C0.003 197.993 0.002 197.993 0 197.993V501.993C0 507.516 4.477 511.993 10 511.993H502C507.523 511.993 512 507.516 512 501.993V197.993C511.998 197.993 511.997 197.993 511.995 197.993ZM279.358 22.9221C283.257 19.0231 289.602 19.0241 293.5 22.9221L371.99 101.412C373.879 103.301 374.919 105.812 374.919 108.483C374.919 111.154 373.879 113.665 371.99 115.554L347.551 139.993H162.287L279.358 22.9221ZM69.849 111.993H162.002L134.002 139.993H109.544C104.021 139.993 99.544 144.47 99.544 149.993C99.544 155.516 104.021 159.993 109.544 159.993H138.211H351.692H412.455C417.978 159.993 422.455 155.516 422.455 149.993C422.455 144.47 417.978 139.993 412.455 139.993H375.835L386.132 129.696C390.962 124.866 393.934 118.677 394.709 111.993H442.152L484.902 187.993H27.099L69.849 111.993ZM492 491.993H20V207.993H492V491.993Z" fill="#FAD2AD"></path> <path d="M127 272H427.951V428H400.452C394.929 428 390.452 432.477 390.452 438C390.452 443.523 394.929 448 400.452 448H437.951C443.474 448 447.951 443.523 447.951 438V262C447.951 256.477 443.474 252 437.951 252H128.5C122.977 252 133.5 257.977 133.5 263.5C133.5 269.023 121.477 272 127 272Z" fill="#FAD2AD"></path> <path d="M74 447.993H412C417.523 447.993 400.5 444.023 400.5 438.5C400.5 432.977 408.523 427.993 403 427.993H84V271.993H127.049C132.572 271.993 137.049 267.516 137.049 261.993C137.049 256.47 132.572 251.993 127.049 251.993H74C68.477 251.993 64 256.47 64 261.993V437.993C64 443.516 68.477 447.993 74 447.993Z" fill="#FAD2AD"></path> <path d="M113.345 304.554C108.133 306.378 105.386 312.083 107.21 317.296L132.41 389.296C133.814 393.307 137.599 395.992 141.848 395.992C146.097 395.992 149.883 393.306 151.286 389.295L176.486 317.295C178.311 312.083 175.564 306.378 170.351 304.553C165.138 302.728 159.434 305.475 157.609 310.688L141.848 355.72L126.086 310.687C124.263 305.477 118.562 302.729 113.345 304.554Z" fill="#FAD2AD"></path> <path d="M223.001 395.993C242.411 395.993 258.201 380.202 258.201 360.793V339.193C258.201 319.783 242.41 303.993 223.001 303.993C203.592 303.993 187.801 319.784 187.801 339.193V360.793C187.801 380.202 203.592 395.993 223.001 395.993ZM207.801 339.193C207.801 330.812 214.619 323.993 223.001 323.993C231.383 323.993 238.201 330.812 238.201 339.193V360.793C238.201 369.174 231.382 375.993 223.001 375.993C214.62 375.993 207.801 369.174 207.801 360.793V339.193Z" fill="#FAD2AD"></path> <path d="M370.365 323.993H393.351C398.874 323.993 403.351 319.516 403.351 313.993C403.351 308.47 398.874 303.993 393.351 303.993H370.365C358.062 303.993 348.052 314.002 348.052 326.306V373.681C348.052 385.984 358.061 395.994 370.365 395.994H393.351C398.874 395.994 403.351 391.517 403.351 385.994C403.351 380.471 398.874 375.994 393.351 375.994H370.365C369.09 375.994 368.052 374.956 368.052 373.681V359.993H383.252C388.775 359.993 393.252 355.516 393.252 349.993C393.252 344.47 388.775 339.993 383.252 339.993H368.052V326.305C368.052 325.03 369.09 323.993 370.365 323.993Z" fill="#FAD2AD"></path> <path d="M326.051 303.993H279.851C274.328 303.993 269.851 308.47 269.851 313.993C269.851 319.516 274.328 323.993 279.851 323.993H292.951V385.993C292.951 391.516 297.428 395.993 302.951 395.993C308.474 395.993 312.951 391.516 312.951 385.993V323.993H326.051C331.574 323.993 336.051 319.516 336.051 313.993C336.051 308.47 331.574 303.993 326.051 303.993Z" fill="#FAD2AD"></path> <path d="M253.25 124.993H284C289.523 124.993 294 120.516 294 114.993V64.3262C294 58.8032 289.523 54.3262 284 54.3262C278.477 54.3262 274 58.8032 274 64.3262V104.993H253.25C247.727 104.993 243.25 109.47 243.25 114.993C243.25 120.516 247.727 124.993 253.25 124.993Z" fill="#FAD2AD"></path> </g> <defs> <clipPath id="clip0"> <rect width="512" height="512" fill="white"></rect> </clipPath> </defs> </svg> 